<svg width="209" height="210" viewBox="0 0 209 210" fill="none" xmlns="http://www.w3.org/2000/svg">
<g clip-path="url(#clip0_6_2)" filter="url(#filter0_d_6_2)">
<path d="M175.71 29.3548C156.814 10.4361 131.689 0.0115427 104.921 0C49.7591 0 4.86876 44.9008 4.84667 100.09C4.84025 117.732 9.4472 134.953 18.2038 150.132L4.0065 202L57.0568 188.082C71.6731 196.057 88.1302 200.26 104.877 200.267H104.92H104.921C160.073 200.267 204.97 155.358 204.994 100.171C205.003 73.424 194.602 48.2747 175.71 29.3548ZM104.921 183.361H104.888C89.9604 183.353 75.3218 179.343 62.5533 171.763L59.5147 169.96L28.0335 178.219L36.4386 147.519L34.4588 144.372C26.132 131.125 21.7362 115.816 21.7424 100.097C21.7607 54.225 59.0718 16.9063 104.952 16.9063C127.17 16.9155 148.052 25.5805 163.757 41.3051C179.461 57.0295 188.103 77.9331 188.096 100.164C188.077 146.037 150.764 183.361 104.921 183.361Z" fill="#E0E0E0"/>
<path d="M8.60043 196.245L22.1492 146.746C13.7905 132.26 9.39479 115.825 9.40007 98.9922C9.42198 46.3248 52.2621 3.47632 104.899 3.47632C130.447 3.48786 154.424 13.4357 172.452 31.4906C190.484 49.5454 200.409 73.5442 200.398 99.0669C200.376 151.736 157.534 194.588 104.903 194.588C104.906 194.588 104.899 194.588 104.903 194.588H104.861C88.8782 194.583 73.1742 190.569 59.2264 182.963L8.60043 196.245Z" fill="url(#paint0_linear_6_2)"/>
<path fill-rule="evenodd" clip-rule="evenodd" d="M80.1912 57.5971C78.3398 53.4785 76.3905 53.396 74.6291 53.324C73.1884 53.2621 71.539 53.2659 69.8923 53.2659C68.2442 53.2659 65.5661 53.8856 63.3014 56.3603C61.0353 58.8351 54.6492 64.8177 54.6492 76.9852C54.6492 89.154 63.5074 100.912 64.7421 102.563C65.9782 104.212 81.8419 129.98 106.966 139.893C127.845 148.131 132.094 146.493 136.627 146.08C141.159 145.668 151.25 140.099 153.31 134.324C155.37 128.55 155.37 123.6 154.752 122.566C154.134 121.535 152.486 120.917 150.014 119.68C147.542 118.443 135.391 112.46 133.125 111.635C130.858 110.811 129.21 110.398 127.562 112.874C125.914 115.348 121.18 120.917 119.738 122.566C118.296 124.219 116.854 124.425 114.382 123.188C111.91 121.947 103.949 119.339 94.5048 110.913C87.1569 104.359 82.1959 96.2635 80.7539 93.7876C79.3118 91.3141 80.5993 89.9744 81.8393 88.7414C82.9491 87.6335 84.3114 85.8544 85.5474 84.4103C86.7808 82.9661 87.1928 81.9355 88.0168 80.2866C88.8408 78.635 88.4288 77.191 87.8108 75.9543C87.1928 74.7175 82.3891 62.4872 80.1912 57.5971Z" fill="white"/>
<path d="M174.892 29.0367C156.214 10.3352 131.377 0.0305064 104.916 0.0187988C50.3875 0.0187988 6.01251 44.4041 5.99059 98.9601C5.98416 116.399 10.5382 133.422 19.1942 148.428L5.16014 199.7L57.6015 185.941C72.0502 193.825 88.3182 197.98 104.873 197.986H104.915H104.916C159.435 197.986 203.817 153.593 203.84 99.0399C203.849 72.6 193.568 47.7395 174.892 29.0367ZM104.916 181.275H104.884C90.1273 181.268 75.6566 177.304 63.0349 169.81L60.031 168.028L28.9113 176.192L37.2197 145.845L35.2627 142.734C27.0315 129.639 22.6861 114.505 22.6926 98.9667C22.7105 53.6216 59.5933 16.7313 104.947 16.7313C126.91 16.7404 147.551 25.3059 163.077 40.85C178.6 56.394 187.143 77.0575 187.137 99.0338C187.117 144.38 150.233 181.275 104.916 181.275Z" fill="white"/>
</g>
<defs>
<filter id="filter0_d_6_2" x="0" y="0" width="209" height="210" filterUnits="userSpaceOnUse" color-interpolation-filters="sRGB">
<feFlood flood-opacity="0" result="BackgroundImageFix"/>
<feColorMatrix in="SourceAlpha" type="matrix" values="0 0 0 0 0 0 0 0 0 0 0 0 0 0 0 0 0 0 127 0" result="hardAlpha"/>
<feOffset dy="4"/>
<feGaussianBlur stdDeviation="2"/>
<feComposite in2="hardAlpha" operator="out"/>
<feColorMatrix type="matrix" values="0 0 0 0 0 0 0 0 0 0 0 0 0 0 0 0 0 0 0.25 0"/>
<feBlend mode="normal" in2="BackgroundImageFix" result="effect1_dropShadow_6_2"/>
<feBlend mode="normal" in="SourceGraphic" in2="effect1_dropShadow_6_2" result="shape"/>
</filter>
<linearGradient id="paint0_linear_6_2" x1="104.499" y1="196.245" x2="104.499" y2="3.47664" gradientUnits="userSpaceOnUse">
<stop stop-color="#20B038"/>
<stop offset="1" stop-color="#60D66A"/>
</linearGradient>
<clipPath id="clip0_6_2">
<rect width="201" height="202" fill="white" transform="translate(4)"/>
</clipPath>
</defs>
</svg>
